<?xml version="1.0" encoding="UTF-8"?>
<svg width="1200pt" height="1200pt" version="1.1" viewBox="0 0 1200 1200" xmlns="http://www.w3.org/2000/svg">
 <g>
  <path d="m85.199 807.6c-3.6016 0-7.1992-1.1992-9.6016-3.6016-4.8008-3.6016-7.1992-9.6016-7.1992-16.801l8.4023-43.199-32.398-31.199c-4.8008-4.8008-6.0039-10.801-4.8008-16.801 2.3984-6 7.1992-10.801 13.199-12l44.398-6 20.398-40.801c2.3984-6 8.3984-9.6016 15.602-9.6016 7.1992 0 12 3.6016 15.602 9.6016l20.398 40.801 44.398 6c6 1.1992 12 4.8008 13.199 12 2.3984 6 0 13.199-4.8008 16.801l-32.395 31.199 7.1992 44.398c1.1992 6-1.1992 13.199-7.1992 16.801-4.8008 3.6016-12 4.8008-18 1.1992l-39.602-20.398-39.602 20.398c-2.3984 1.2031-4.7969 1.2031-7.1992 1.2031zm-4.8008-26.402m105.6 0m-52.801-25.199c2.3984 0 4.8008 1.1992 7.1992 2.3984l25.199 13.199-4.8008-27.602c-1.1992-6 1.1992-10.801 4.8008-14.398l20.398-20.398-27.602-3.6016c-6-1.1992-9.6016-4.8008-13.199-9.6016l-13.199-25.199-12 25.199c-2.3984 4.8008-7.1992 8.3984-12 9.6016l-28.797 2.4023 20.398 20.398c3.6016 3.6016 6 9.6016 4.8008 14.398l-4.8008 27.602 25.199-13.199c2.4023 0 4.8047-1.1992 8.4023-1.1992z"/>
  <path d="m1140 794.4h-850.8c-12 0-20.398-9.6016-20.398-20.398 0-12 9.6016-20.398 20.398-20.398h850.8c12 0 20.398 9.6016 20.398 20.398 1.2031 10.801-8.3984 20.398-20.398 20.398z"/>
  <path d="m180 572.4c-2.3984 0-4.8008-1.1992-8.3984-2.3984l-39.602-20.398-39.602 20.398c-6 3.6016-12 2.3984-18-1.1992-4.8008-3.6016-7.1992-9.6016-7.1992-16.801l7.1992-44.398-32.398-31.199c-4.8008-4.8008-6-10.801-4.8008-16.801 2.3984-6 7.1992-10.801 13.199-12l44.398-6 20.398-40.801c2.3984-6 8.3984-9.6016 15.602-9.6016 7.1992 0 12 3.6016 15.602 9.6016l20.398 40.801 44.398 6c6 1.1992 12 4.8008 13.199 12 2.3984 6 0 13.199-4.8008 16.801l-32.398 31.199 7.1992 44.398c1.1992 6-1.1992 13.199-7.1992 16.801 0.003907 2.3984-3.5938 3.5977-7.1953 3.5977zm-52.801-26.398m10.801 0m-4.8008-26.398c2.3984 0 4.8008 1.1992 8.3984 2.3984l25.199 13.199-4.8008-27.602c-1.1992-6 1.1992-10.801 4.8008-14.398l20.398-20.398-28.797-4.8008c-6-1.1992-9.6016-4.8008-13.199-9.6016l-13.199-25.199-12 25.199c-2.3984 4.8008-7.1992 8.3984-12 9.6016l-28.801 3.6016 20.402 20.398c3.6016 3.6016 6 9.6016 4.8008 14.398l-4.8008 27.602 25.199-13.199c2.3984 0 4.8008-1.1992 8.3984-1.1992z"/>
  <path d="m1140 558h-850.8c-12 0-20.398-9.6016-20.398-20.398 0-10.801 9.6016-20.398 20.398-20.398l850.8-0.003906c12 0 20.398 9.6016 20.398 20.398 0 10.801-8.3984 20.402-20.398 20.402z"/>
  <path d="m180 336c-2.3984 0-4.8008-1.1992-8.3984-2.3984l-39.602-20.398-39.602 20.398c-6 3.6016-12 2.3984-18-1.1992-4.8008-3.6016-7.1992-9.6016-7.1992-16.801l7.1992-44.398-30-31.203c-4.8008-4.8008-6-10.801-4.8008-16.801 2.3984-6 7.1992-10.801 13.199-12l44.398-6 20.398-40.801c2.3984-6 8.3984-9.6016 15.602-9.6016 7.1992 0 12 3.6016 15.602 9.6016l20.398 40.801 44.398 6c6 1.1992 12 4.8008 13.199 12 2.3984 6 0 13.199-4.8008 16.801l-32.398 31.199 7.1992 44.398c1.1992 6-1.1992 13.199-7.1992 16.801-2.3945 2.4023-5.9922 3.6016-9.5938 3.6016zm-52.801-26.398m10.801 0m-4.8008-26.402c2.3984 0 4.8008 1.1992 8.3984 2.3984l25.199 13.199-4.8008-27.602c-1.1992-6 1.1992-10.801 4.8008-14.398l20.398-20.398-27.602-3.6016c-6-1.1992-9.6016-4.8008-13.199-9.6016l-13.199-25.199-12 25.199c-2.3984 4.8008-7.1992 8.3984-12 9.6016l-28.801 3.6016 20.398 20.398c3.6016 3.6016 6 9.6016 4.8008 14.398l-4.8008 27.602 25.199-13.199c1.207-1.1992 3.6094-2.3984 7.207-2.3984z"/>
  <path d="m1140 321.6h-850.8c-12 0-20.398-9.6016-20.398-20.398 0-10.801 9.6016-20.398 20.398-20.398l850.8-0.003907c12 0 20.398 9.6016 20.398 20.398 0 10.801-8.3984 20.402-20.398 20.402z"/>
  <path d="m85.199 1044c-3.6016 0-7.1992-1.1992-9.6016-3.6016-4.8008-3.6016-7.1992-9.6016-7.1992-16.801l7.1992-44.398-32.398-31.199c-4.8008-4.8008-6-10.801-4.8008-16.801 2.3984-6 7.1992-10.801 13.199-12l44.398-6 20.398-40.801c2.3984-6 8.3984-9.6016 15.602-9.6016 7.1992 0 12 3.6016 15.602 9.6016l20.398 40.801 44.398 6c6 1.1992 12 4.8008 13.199 12 2.3984 6 0 13.199-4.8008 16.801l-32.398 31.199 7.1992 44.398c1.1992 6-1.1992 13.199-7.1992 16.801-4.8008 3.6016-12 4.8008-18 1.1992l-39.602-20.398-39.602 20.398c-1.1914 2.4023-3.5898 2.4023-5.9922 2.4023zm-4.8008-26.398m105.6 0m-52.801-25.203c2.3984 0 4.8008 1.1992 7.1992 2.3984l25.199 13.199-4.8008-27.602c-1.1992-6 1.1992-10.801 4.8008-14.398l20.398-20.398-27.602-3.6016c-6-1.1992-9.6016-3.6016-13.199-9.6016l-13.199-25.199-12 25.199c-2.3945 3.6055-7.1953 7.207-11.996 8.4062l-27.602 3.6016 20.398 20.398c3.6016 3.6016 6 9.6016 4.8008 14.398l-5.9961 28.801 25.199-13.199c2.3984-2.4023 4.8008-2.4023 8.3984-2.4023z"/>
  <path d="m1140 1030.8h-850.8c-12 0-20.398-9.6016-20.398-20.398 0-12 9.6016-20.398 20.398-20.398l850.8-0.003906c12 0 20.398 9.6016 20.398 20.398 1.2031 10.801-8.3984 20.402-20.398 20.402z"/>
 </g>
</svg>
